# xmcd
#
# Track frame offsets: 
#        150
#        11521
#        25807
#        38886
#        52659
#        63997
#        82749
#        94245
#        109148
#        125530
#        141597
#
# Disc length: 2060 seconds
#
# Revision: 0
# Processed by: cddbd v1.5.2PL0 Copyright (c) Steve Scherf et al.
# Submitted via: ExactAudioCopy v0.99pb4
#
DISCID=88080a0b
DTITLE=Ben and Eric Marshall - Grass Roots Project
DYEAR=2014
DGENRE=Bluegrass
TTITLE0=Just as Sure as the Stars are Above
TTITLE1=Little Darlin'
TTITLE2=The Farmer's Hands
TTITLE3=Just My Memory Of You
TTITLE4=I've Found The Way
TTITLE5=A Better Day
TTITLE6=Why's Leaving You so Hard to Do
TTITLE7=Sooner or Later
TTITLE8=The Soldier's Return
TTITLE9=Where We'll Never Grow Old
TTITLE10=I'm on my Way to Canaan's Land
EXTD=
EXTT0=
EXTT1=
EXTT2=
EXTT3=
EXTT4=
EXTT5=
EXTT6=
EXTT7=
EXTT8=
EXTT9=
EXTT10=
PLAYORDER=
